<svg id="Articles" xmlns="http://www.w3.org/2000/svg" width="13.95" height="18" viewBox="0 0 13.95 18">
  <path id="Path_294" data-name="Path 294" d="M6.485,2h7.625a.9.9,0,0,1,.9.9V18.16a.9.9,0,0,1-.9.9H2.9a.9.9,0,0,1-.9-.9V6.489Z" transform="translate(-1.529 -1.529)" fill="#fff"/>
  <path id="Path_295" data-name="Path 295" d="M7.476,3V6.534a.942.942,0,0,1-.942.942H3" transform="translate(-2.293 -2.293)" fill="#ed8b18"/>
  <path id="Path_296" data-name="Path 296" d="M5,6.418H1.471a.471.471,0,0,1,0-.942H5A.473.473,0,0,0,5.476,5V1.471a.471.471,0,1,1,.942,0V5A1.415,1.415,0,0,1,5,6.418Z" transform="translate(-0.764 -0.764)"/>
  <path id="Path_297" data-name="Path 297" d="M34.712,10.942H30.471a.471.471,0,0,1,0-.942h4.241a.471.471,0,1,1,0,.942Z" transform="translate(-23.425 -7.644)"/>
  <path id="Path_298" data-name="Path 298" d="M34.712,20.942H30.471a.471.471,0,1,1,0-.942h4.241a.471.471,0,1,1,0,.942Z" transform="translate(-23.425 -15.511)"/>
  <path id="Path_299" data-name="Path 299" d="M18.8,66.942H10.44a.472.472,0,0,1,0-.942H18.8a.472.472,0,0,1,0,.942Z" transform="translate(-7.644 -52.298)"/>
  <path id="Path_303" data-name="Path 303" d="M12.6,18H1.35A1.351,1.351,0,0,1,0,16.65V4.95a.442.442,0,0,1,.133-.317l4.5-4.5A.442.442,0,0,1,4.95,0H12.6a1.351,1.351,0,0,1,1.35,1.35v15.3A1.351,1.351,0,0,1,12.6,18ZM.9,5.137V16.65a.451.451,0,0,0,.45.45H12.6a.451.451,0,0,0,.45-.45V1.35A.451.451,0,0,0,12.6.9H5.137Z" transform="translate(0 0)"/>
  <path id="Path_304" data-name="Path 304" d="M18.8,66.942H10.44a.472.472,0,0,1,0-.942H18.8a.472.472,0,0,1,0,.942Z" transform="translate(-7.645 -55.298)"/>
  <path id="Path_305" data-name="Path 305" d="M18.8,66.942H10.44a.472.472,0,0,1,0-.942H18.8a.472.472,0,0,1,0,.942Z" transform="translate(-7.645 -58.471)"/>
</svg>
