<svg xmlns="http://www.w3.org/2000/svg" width="18.814" height="16.172" viewBox="0 0 18.814 16.172">
  <g id="Group_259" data-name="Group 259" transform="translate(-3012 -14141.74)">
    <ellipse id="Ellipse_84" data-name="Ellipse 84" cx="2.887" cy="2.598" rx="2.887" ry="2.598" transform="translate(3024.124 14143.045)" fill="#fff"/>
    <ellipse id="Ellipse_83" data-name="Ellipse 83" cx="2.309" cy="3.175" rx="2.309" ry="3.175" transform="translate(3024.701 14151.127)" fill="#fff"/>
    <ellipse id="Ellipse_82" data-name="Ellipse 82" cx="4.041" cy="4.619" rx="4.041" ry="4.619" transform="translate(3013.732 14146.509)" fill="#fff"/>
    <g id="Group_3426" data-name="Group 3426" transform="translate(3012 14141.74)">
      <path id="Path_29584" data-name="Path 29584" d="M30.475,861.04a4.526,4.526,0,0,0-1.424-.482c-.031-.007-.044.008-.05.036-.018.077-.038.155-.058.232-.105.422-.21.844-.318,1.266-.015.057,0,.079.055.091.086.019.171.045.257.065a4.385,4.385,0,0,0,1.013.158,1.356,1.356,0,0,0,.527-.086.676.676,0,0,0,.29-1.015,1.006,1.006,0,0,0-.292-.266" transform="translate(-23.159 -850.695)" fill="#e48720"/>
      <path id="Path_29585" data-name="Path 29585" d="M33.235,849.822a1.383,1.383,0,0,0-.288-.178,4.59,4.59,0,0,0-.957-.284c-.038-.009-.051.008-.059.041-.02.084-.041.167-.062.251l-.274,1.1c-.008.032-.024.062.028.076a4.363,4.363,0,0,0,1.055.187,1.572,1.572,0,0,0,.255-.023.626.626,0,0,0,.543-.484.633.633,0,0,0-.243-.687" transform="translate(-25.543 -841.702)" fill="#e48720"/>
      <path id="Path_29586" data-name="Path 29586" d="M61.872,854.271a3.774,3.774,0,1,0,3.774,3.775,3.775,3.775,0,0,0-3.774-3.775m-.049,6.687c-.011,0-.014-.013-.02-.021l-1.717-2.378-.014-.022.006-.006.364.209,1.354.786.028.017v1.415m-1.683-2.429s.008,0,.011,0l-.006.006s-.006-.008,0-.008m1.65.666-1.7-.988c-.011-.006-.027-.008-.027-.027l.007-.008a.554.554,0,0,0,.142-.057l1.6-.716.007,0,0,0v1.806c-.016.008-.026,0-.036-.011m.034-3.991v2.016l-.007,0-1.6.716a.551.551,0,0,1-.143.057.307.307,0,0,1,.041-.073l1.687-2.753a.216.216,0,0,1,.018-.028c.007-.008.01,0,.012,0a.142.142,0,0,0-.005.058m1.847,3.334c-.048.078-.105.15-.159.225l-1.561,2.16c-.009.013-.016.028-.031.036v-1.415l1.055-.612.656-.381.036-.018.008,0,0,.008m-.061-.3-.809.47-.841.488a.088.088,0,0,1-.038.014V857.4l.381.168,1.342.6a.372.372,0,0,0,.038.013c-.015.03-.047.038-.072.053m.034-.243-1.342-.6-.381-.168,0,0V855.2a.138.138,0,0,1,.005-.058c.013.006.018.02.025.031l1.722,2.807a.152.152,0,0,1,.01.02c-.013,0-.026-.008-.038-.013" transform="translate(-46.832 -845.648)" fill="#445b8f"/>
      <path id="Path_29587" data-name="Path 29587" d="M86.376,875.914h0l0,0Z" transform="translate(-69.539 -863.025)" fill="#e48720"/>
      <path id="Path_29588" data-name="Path 29588" d="M68.446,874.083l.007-.008c-.005,0-.006,0-.007.008" transform="translate(-55.143 -861.552)" fill="#e48720"/>
      <path id="Path_29589" data-name="Path 29589" d="M69.8,826.35a.472.472,0,0,0-.136-.033,1.794,1.794,0,0,0-.337,0,5.9,5.9,0,0,0-.871.139c-.045.01-.045.011-.032.055l.124.444c.013.044.012.044-.03.059a6.589,6.589,0,0,1-.7.2c-.045.01-.045.01-.059-.035q-.063-.225-.126-.451c-.007-.026-.017-.036-.045-.026a6.931,6.931,0,0,0-.661.258,2.391,2.391,0,0,0-.449.254.434.434,0,0,0-.11.111.089.089,0,0,0,.044.146.432.432,0,0,0,.139.035,2.444,2.444,0,0,0,.593-.023,7.58,7.58,0,0,0,1.066-.226,7.341,7.341,0,0,0,1.11-.4,2.261,2.261,0,0,0,.42-.239.469.469,0,0,0,.109-.107.094.094,0,0,0-.044-.157" transform="translate(-53.456 -823.192)" fill="#53ae94"/>
      <path id="Path_29590" data-name="Path 29590" d="M63.653,813.235a3.774,3.774,0,1,0-2.62,4.654,3.774,3.774,0,0,0,2.62-4.654v0m-1.772,1-.005,0Zm.036-.417a.676.676,0,0,1-.152.148,2.9,2.9,0,0,1-.548.311,6.371,6.371,0,0,1-.636.248l-.028.01c-.023.007-.028.021-.021.044s.008.029.013.044l.391,1.4c.015.054.015.055-.038.07l-.677.19c-.059.016-.059.016-.075-.041l-.393-1.4c-.021-.074-.009-.069-.089-.052a6.624,6.624,0,0,1-.745.124,2.568,2.568,0,0,1-.581.007.618.618,0,0,1-.183-.047.133.133,0,0,1-.1-.162.131.131,0,0,1,.034-.06.63.63,0,0,1,.145-.145,2.761,2.761,0,0,1,.533-.305,6.51,6.51,0,0,1,.679-.266c.044-.015.044-.016.032-.06l-.107-.391c-.012-.044-.013-.044-.056-.031l-1,.278c-.052.014-.052.014-.066-.038l-.178-.633c-.012-.044-.012-.044.032-.055l1.443-.4,1.433-.4c.052-.015.052-.015.067.037l.175.622c.015.053.015.053-.04.068l-.983.275c-.054.015-.054.015-.039.069l.1.375c.013.047.015.048.064.037a5.97,5.97,0,0,1,.927-.143,2.019,2.019,0,0,1,.444.01.593.593,0,0,1,.148.04.136.136,0,0,1,.064.23" transform="translate(-45.343 -810.478)" fill="#53ae94"/>
      <path id="Path_29591" data-name="Path 29591" d="M67.095,832.627l0-.01s-.005.005,0,.01" transform="translate(-54.058 -828.258)" fill="#e48720"/>
      <path id="Path_29592" data-name="Path 29592" d="M7.771,828.8a6.045,6.045,0,1,0,6.045,6.045A6.045,6.045,0,0,0,7.771,828.8m3.117,5.473a1.121,1.121,0,0,1-.809.8l-.032.011s-.006.006-.013.012a.145.145,0,0,0,.061.045,1.819,1.819,0,0,1,.309.217,1.147,1.147,0,0,1,.379,1.12,1.957,1.957,0,0,1-.46,1.021,1.44,1.44,0,0,1-.935.449,3.972,3.972,0,0,1-1.213-.072c-.067-.012-.089.007-.1.069-.085.352-.178.7-.26,1.055-.016.066-.039.079-.1.062-.194-.052-.389-.1-.585-.146-.055-.013-.064-.035-.051-.087.089-.355.178-.707.266-1.06.015-.058,0-.078-.055-.089q-.222-.052-.444-.115c-.057-.017-.076,0-.089.054-.086.355-.178.708-.262,1.062-.013.053-.029.073-.089.057-.2-.054-.4-.1-.6-.149-.05-.012-.062-.03-.049-.082.089-.355.178-.707.266-1.061.023-.093.023-.093-.072-.118l-1.3-.329c-.078-.02-.078-.02-.045-.094.1-.229.2-.457.3-.688.027-.064.057-.073.12-.055.146.042.294.079.444.111A.27.27,0,0,0,5.8,836.1a.283.283,0,0,0,.013-.057l.791-3.17a.377.377,0,0,0-.234-.479l-.032-.009a5.016,5.016,0,0,0-.52-.133c-.053-.012-.069-.029-.054-.085.056-.214.111-.428.16-.643.015-.063.041-.069.1-.054.381.1.762.193,1.144.289.062.016.126.026.187.044s.077,0,.089-.055c.086-.355.178-.707.262-1.062.015-.06.037-.071.094-.056.19.051.381.1.572.144.086.021.086.022.064.11l-.252,1.009c-.02.082-.02.082.065.1.144.034.289.065.432.1.057.016.076,0,.089-.055.083-.342.171-.682.252-1.021.016-.066.038-.079.1-.061.192.052.385.1.577.144.061.014.07.038.055.1-.089.351-.174.7-.266,1.054-.016.062,0,.084.057.1a3.035,3.035,0,0,1,.924.482,1.239,1.239,0,0,1,.415,1.434" transform="translate(-1.726 -825.531)" fill="#e48720"/>
    </g>
  </g>
</svg>
